<?xml version="1.0" standalone="no"?><!DOCTYPE svg PUBLIC "-//W3C//DTD SVG 1.1//EN" "http://www.w3.org/Graphics/SVG/1.1/DTD/svg11.dtd"><svg t="1667136409757" class="icon" viewBox="0 0 1024 1024" version="1.1" xmlns="http://www.w3.org/2000/svg" p-id="5971" xmlns:xlink="http://www.w3.org/1999/xlink" width="32" height="32"><path d="M669.018032 904.621c-157.563178-91.191673-57.921744-225.008941-57.921744-282.994819H412.903712c0 57.977862 99.665484 191.803146-57.921744 282.994819-29.518043 28.900746-26.77628 65.882477-22.623552 107.345627h359.299202c4.136695-41.46315 6.878458-78.444881-22.639586-107.345627z" fill="#7BC7FF" p-id="5972"></path><path d="M605.115718 904.621c-93.444408-91.191673-34.352204-225.008941-34.352204-282.994819h-117.527028c0 57.977862 59.092204 191.803146-34.33617 282.994819-17.508801 28.900746-15.873364 65.882477-13.420207 107.345627h213.055816c2.445139-41.46315 4.07256-78.444881-13.420207-107.345627z" fill="#0086FF" p-id="5973"></path><path d="M512.56118 621.626181H412.903712c0 23.39317 16.218088 59.140306 25.229028 99.441012l73.875277 63.806113-5.732048-29.983021 5.732048 16.474628 5.716014-16.426527-5.716014 29.93492 73.875276-63.806113c9.002923-40.300707 25.221011-76.047843 25.221012-99.441012H512.56118z" fill="#0A6ADD" p-id="5974"></path><path d="M691.673652 1023.991903a12.009242 12.009242 0 0 1-11.977175-13.219786c4.256948-42.785931 5.299138-72.784985-18.069981-96.538913-126.858641-74.276119-95.11993-176.122187-74.099748-243.600017 4.345133-13.94932 8.281406-26.567842 10.237518-36.981731H426.235734c1.964128 10.413889 5.892385 23.032411 10.237518 36.981731 21.028199 67.47783 52.766909 169.323898-74.099748 243.600017-23.385153 23.769961-22.326928 53.752982-18.053947 96.530896a12.025276 12.025276 0 0 1-10.76663 13.163668 11.929073 11.929073 0 0 1-13.163669-10.76663c-3.912223-39.058095-8.345541-83.33516 26.175017-117.126185 0.721517-0.705483 1.523202-1.314763 2.397038-1.819825 111.81903-64.712017 85.611946-148.832828 64.55168-216.422893-6.782255-21.765749-12.634556-40.565263-12.634557-56.166054a12.025276 12.025276 0 0 1 12.025276-12.025276h198.200593a12.025276 12.025276 0 0 1 12.025275 12.025276c0 15.600791-5.852301 34.400305-12.634556 56.158037-21.052249 67.598083-47.26735 151.718894 64.55168 216.43091 0.86582 0.505062 1.675522 1.114342 2.397038 1.819825 34.504524 33.783008 30.08724 78.060073 26.19105 117.118168a12.049326 12.049326 0 0 1-11.96114 10.838782z" fill="#33363A" p-id="5975"></path><path d="M452.675307 410.117616l59.324693 310.620886-239.327036-206.698454-59.332709-310.604853z" fill="#7BC7FF" p-id="5976"></path><path d="M329.287962 562.950852l182.712038 157.78765-45.295205-237.106368-182.67997-157.771616z" fill="#0086FF" p-id="5977"></path><path d="M512 732.763778c-2.821931 0-5.619812-0.994089-7.856513-2.926151L264.808434 523.139173a11.977175 11.977175 0 0 1-3.952307-6.84639l-59.324693-310.604853a12.025276 12.025276 0 0 1 19.673351-11.35186l239.335052 206.682421c2.052314 1.771724 3.447246 4.184796 3.952307 6.84639l59.324694 310.620886a12.025276 12.025276 0 0 1-11.816838 14.278011zM283.696134 507.674669l210.009413 181.373224L441.652138 416.482995 231.642724 235.125805l52.05341 272.548864z" fill="#33363A" p-id="5978"></path><path d="M571.33271 410.117616l-59.33271 310.620886 239.335052-206.698454 59.324693-310.604853z" fill="#7BC7FF" p-id="5979"></path><path d="M694.712038 562.950852L512 720.738502l45.303222-237.106368 182.67997-157.771616z" fill="#0086FF" p-id="5980"></path><path d="M512 732.763778a12.025276 12.025276 0 0 1-11.816838-14.278011l59.324694-310.620886c0.505062-2.661594 1.899994-5.074666 3.952307-6.84639l239.335052-206.682421a12.017259 12.017259 0 0 1 19.673351 11.35186l-59.324693 310.604853a12.009242 12.009242 0 0 1-3.952307 6.84639L519.86453 729.837627c-2.244718 1.932061-5.042599 2.92615-7.86453 2.926151z m70.355879-316.280783l-52.053409 272.564898 210.009413-181.373224 52.05341-272.556881L582.355879 416.482995z" fill="#33363A" p-id="5981"></path><path d="M632.958239 359.619475l-120.958239 347.610634-120.958239-347.610634L512 12.032892z" fill="#7BC7FF" p-id="5982"></path><path d="M419.669934 441.880377l92.330066 265.349732 92.338083-265.349732-92.338083-265.333698z" fill="#0086FF" p-id="5983"></path><path d="M512 719.255385a12.025276 12.025276 0 0 1-11.359877-8.072968L379.681884 363.579799a12.137512 12.137512 0 0 1 0-7.904614L500.640123 8.080584a12.025276 12.025276 0 0 1 22.719754 0L644.318116 355.667168c0.881854 2.557375 0.881854 5.347239 0 7.904614L523.359877 711.182417a12.025276 12.025276 0 0 1-11.359877 8.072968z m-108.227481-359.63591l108.227481 311.013712 108.227481-311.013712-108.227481-310.997678-108.227481 310.997678z" fill="#33363A" p-id="5984"></path><path d="M540.187246 769.633273l-28.187246 33.374148-28.171212-33.374148 28.171212-22.238743z" fill="#7BC7FF" p-id="5985"></path><path d="M512 815.032697c-3.543448 0-6.902508-1.563286-9.187311-4.264965l-28.171212-33.374148a12.025276 12.025276 0 0 1 1.739657-17.188127l28.171212-22.24676a12.025276 12.025276 0 0 1 14.903325 0l28.187246 22.238743a12.017259 12.017259 0 0 1 1.739656 17.196144l-28.187246 33.374148a12.025276 12.025276 0 0 1-9.195327 4.264965z m-10.967051-43.659768l10.967051 12.995315 10.975068-12.995315-10.975068-8.658198-10.967051 8.658198z" fill="#33363A" p-id="5986"></path></svg>