<?xml version="1.0" standalone="no"?><!DOCTYPE svg PUBLIC "-//W3C//DTD SVG 1.1//EN" "http://www.w3.org/Graphics/SVG/1.1/DTD/svg11.dtd"><svg t="1667398738231" class="icon" viewBox="0 0 1024 1024" version="1.1" xmlns="http://www.w3.org/2000/svg" p-id="4796" xmlns:xlink="http://www.w3.org/1999/xlink" width="32" height="32"><path d="M508.763 245.961m-6.5 0a6.5 6.5 0 1 0 13 0 6.5 6.5 0 1 0-13 0Z" fill="#FFFFFF" p-id="4797"></path><path d="M509.602 78.277c-239.513 0-433.676 194.163-433.676 433.676s194.163 433.676 433.676 433.676c244.846 0 433.676-194.163 433.676-433.676S749.114 78.277 509.602 78.277z m-1.712 627.946c-105.61 0-191.223-85.614-191.223-191.223S402.28 323.777 507.89 323.777 699.113 409.39 699.113 515 613.499 706.223 507.89 706.223z" fill="#A67C52" p-id="4798"></path><path d="M509.602 959.629c-60.43 0-119.059-11.838-174.26-35.187-53.311-22.548-101.186-54.825-142.295-95.935s-73.386-88.984-95.935-142.295c-23.348-55.2-35.187-113.83-35.187-174.26s11.838-119.059 35.187-174.26c22.548-53.311 54.825-101.186 95.935-142.294 41.109-41.109 88.984-73.387 142.295-95.935 55.201-23.348 113.83-35.187 174.26-35.187s119.06 11.838 174.26 35.187c53.311 22.548 101.186 54.826 142.295 95.935 41.109 41.109 73.387 88.984 95.935 142.294 23.349 55.201 35.187 113.83 35.187 174.26 0 60.562-11.573 119.161-34.399 174.172-22.182 53.459-54.037 101.35-94.68 142.341-83.865 84.583-197.012 131.164-318.598 131.164z m0-867.352c-231.41 0-419.676 188.266-419.676 419.676s188.266 419.676 419.676 419.676c235.332 0 419.676-184.344 419.676-419.676-0.001-231.41-188.266-419.676-419.676-419.676z m-1.712 627.946c-113.16 0-205.223-92.063-205.223-205.223 0-113.161 92.063-205.223 205.223-205.223S713.113 401.839 713.113 515c0 113.16-92.063 205.223-205.223 205.223z m0-382.446c-97.721 0-177.223 79.502-177.223 177.223 0 97.721 79.502 177.223 177.223 177.223 97.722 0 177.224-79.502 177.224-177.223-0.001-97.721-79.503-177.223-177.224-177.223z" fill="" p-id="4799"></path><path d="M509.678 80.081c-239.513 0-433.676 194.163-433.676 433.676 0 205.967 178.307 398.807 373.6 428.609 2.009-9.197 62.298-102.996 67.837-110.608 42-57.713 132.238-54.27 132.238-54.27s100.578 8.582 100.578-101.418c0-51.68 11.898-78.353 43.498-83.996 41.998-7.5 50.997-7.5 73.496-15.541 47.983-17.149 72.056-58.065 76.103-62.777 0.002-239.512-194.162-433.675-433.674-433.675z m-1.712 627.945c-105.61 0-191.223-85.614-191.223-191.223S402.356 325.58 507.966 325.58s191.223 85.613 191.223 191.223-85.613 191.223-191.223 191.223z" fill="#02FFF0" p-id="4800"></path><path d="M460.476 958.187l-12.985-1.981c-49.628-7.573-98.631-25.167-145.649-52.292-45.577-26.294-86.873-60.104-122.743-100.494-36.331-40.908-64.967-86.199-85.111-134.612-21.225-51.01-31.986-103.176-31.986-155.05 0-60.43 11.838-119.059 35.187-174.26 22.548-53.311 54.826-101.186 95.935-142.295 41.109-41.109 88.984-73.386 142.294-95.935 55.201-23.348 113.83-35.187 174.26-35.187s119.06 11.838 174.26 35.186c53.311 22.549 101.186 54.826 142.295 95.935s73.387 88.984 95.935 142.295c23.349 55.201 35.187 113.83 35.187 174.26v5.188l-3.312 3.855c-0.286 0.366-1.055 1.448-1.677 2.323-8.448 11.889-34.156 48.066-80.403 64.595-17.875 6.389-28.344 8.128-49.201 11.594-7.037 1.17-15.795 2.625-26.546 4.545-16.599 2.964-31.959 13.521-31.959 70.214 0 38.156-11.184 67.773-33.238 88.027-32.473 29.819-76.733 27.749-82.063 27.375-4.446-0.104-84.049-1.146-120.194 48.523-6.662 9.152-60.701 94.045-65.621 106.002l-2.665 12.189z m2.536-11.867z m46.666-852.239c-231.41 0-419.676 188.266-419.676 419.676 0 191.518 159.946 378.241 351.523 413.065 4.524-8.269 12.926-22.451 28.81-47.791 15.432-24.619 32.575-51.102 35.785-55.512 45.866-63.027 140.099-60.171 144.092-60.021l0.656 0.041c0.312 0.024 36.727 2.582 61.381-20.223 15.93-14.734 24.007-37.359 24.007-67.246 0-40.948 6.256-89.067 55.037-97.778 10.916-1.949 19.767-3.42 26.878-4.602 20.406-3.391 28.853-4.795 44.367-10.34 37.584-13.432 59.394-43.742 66.791-54.148C926.87 279.89 739.563 94.081 509.678 94.081z m-1.712 627.945c-113.161 0-205.223-92.063-205.223-205.223 0-113.161 92.063-205.223 205.223-205.223s205.223 92.063 205.223 205.223c0 113.161-92.062 205.223-205.223 205.223z m0-382.445c-97.721 0-177.223 79.502-177.223 177.223 0 97.721 79.502 177.223 177.223 177.223s177.223-79.502 177.223-177.223c0-97.721-79.501-177.223-177.223-177.223z" fill="" p-id="4801"></path><path d="M943.354 513.757c0 11.982 0.953-11.737 0 0z" fill="#02FFF0" p-id="4802"></path><path d="M943.395 531.241c-0.075 0-0.149-0.001-0.223-0.003-5.354-0.108-13.443-4.012-13.782-14.323-0.021-0.646-0.036-1.665-0.036-3.158l0.046-1.133c0.118-1.454 0.214-2.446 0.286-3.075 1.055-9.151 8.323-13.529 14.893-13.128 4.611 0.28 13.303 3.819 13.197 15.203a101.43 101.43 0 0 1-0.077 2.831 101.34 101.34 0 0 1-0.147 2.747c-0.801 11.137-9.481 14.039-14.157 14.039z m-13.384-17.964c1.085 5.376 5.854 10.694 12.927 11.095 7.041 0.401 12.366-4.31 14.075-9.506l-13.659-1.109h13.679c-1.322-5.286-6.233-10.345-13.245-10.511-7.072-0.181-12.267 4.755-13.777 10.031z" fill="" p-id="4803"></path><path d="M200.865 524.684c-3.437 1.984-7.872 0.796-9.856-2.641l-28.514-49.388c-1.984-3.437-0.796-7.872 2.641-9.856 3.437-1.984 7.872-0.796 9.856 2.641l28.514 49.388c1.984 3.437 0.795 7.872-2.641 9.856z" fill="#BA9BC9" p-id="4804"></path><path d="M267.509 391.378c-3.734-1.343-5.69-5.497-4.347-9.231l19.304-53.662c1.343-3.734 5.497-5.69 9.231-4.347s5.69 5.497 4.347 9.231l-19.304 53.662c-1.343 3.734-5.497 5.69-9.231 4.347z" fill="#FFFF00" p-id="4805"></path><path d="M362.06 293.108c-3.33 2.158-7.821 1.199-9.978-2.132l-31.01-47.86c-2.158-3.33-1.199-7.821 2.132-9.978 3.33-2.158 7.821-1.199 9.978 2.132l31.01 47.86c2.158 3.33 1.198 7.82-2.132 9.978z" fill="#FF813F" p-id="4806"></path><path d="M757.989 364.218c-3.189-2.361-3.867-6.902-1.506-10.092l33.932-45.835c2.361-3.189 6.902-3.867 10.092-1.506 3.189 2.361 3.867 6.902 1.506 10.092l-33.932 45.835c-2.361 3.19-6.902 3.868-10.092 1.506z" fill="#FFFFFF" p-id="4807"></path><path d="M593.134 201.997c-2.657 2.948-7.242 3.185-10.19 0.528l-42.359-38.183c-2.948-2.657-3.185-7.242-0.528-10.19 2.657-2.948 7.242-3.185 10.19-0.528l42.359 38.183c2.948 2.657 3.185 7.242 0.528 10.19z" fill="#00BF46" p-id="4808"></path><path d="M778.37 317.394c-2.657 2.948-7.242 3.185-10.19 0.528l-42.359-38.183c-2.948-2.657-3.185-7.242-0.528-10.19 2.657-2.948 7.242-3.185 10.19-0.528l42.359 38.183c2.947 2.657 3.184 7.242 0.528 10.19z" fill="#FFFF00" p-id="4809"></path><path d="M197.927 694.111c-3.734-1.343-5.69-5.497-4.347-9.231l19.304-53.662c1.343-3.734 5.497-5.69 9.231-4.347s5.69 5.497 4.347 9.231l-19.304 53.662c-1.343 3.734-5.497 5.69-9.231 4.347z" fill="#FF00FF" p-id="4810"></path><path d="M832.493 541.081c-3.734-1.343-5.69-5.497-4.347-9.231l19.304-53.662c1.343-3.734 5.497-5.69 9.231-4.347s5.69 5.497 4.347 9.231l-19.304 53.662c-1.343 3.735-5.497 5.691-9.231 4.347z" fill="#838BC5" p-id="4811"></path><path d="M387.356 773.404c-0.622 3.919-4.338 6.617-8.257 5.995l-56.323-8.941c-3.919-0.622-6.617-4.338-5.995-8.257 0.622-3.919 4.338-6.617 8.257-5.995l56.323 8.941c3.919 0.622 6.617 4.337 5.995 8.257z" fill="#C69C6D" p-id="4812"></path><path d="M597.794 259.669m-9.693 0a9.693 9.693 0 1 0 19.386 0 9.693 9.693 0 1 0-19.386 0Z" fill="#FFFFFF" p-id="4813"></path></svg>